<?xml version="1.0" encoding="UTF-8"?>
<svg width="89px" height="142px" viewBox="0 0 89 142" version="1.1" xmlns="http://www.w3.org/2000/svg" xmlns:xlink="http://www.w3.org/1999/xlink">
    <!-- Generator: Sketch 55 (78076) - https://sketchapp.com -->
    <title>Asset 1</title>
    <desc>Created with Sketch.</desc>
    <g id="Page-1" stroke="none" stroke-width="1" fill="none" fill-rule="evenodd">
        <g id="Asset-1" fill-rule="nonzero">
            <path d="M24.61,44.94 L24.61,60.72 C24.61,65.14 26.61,81.48 44.01,81.48 C61.41,81.48 63.41,65.14 63.41,60.72 L63.41,44.94 L24.61,44.94 Z" id="Path" fill="#BFBFC1"></path>
            <path d="M52.45,130.18 L36.27,130.18 C24.94,130.18 17.54,137.52 17.54,141.3 L71.18,141.3 C71.18,137.52 63.78,130.18 52.45,130.18 Z" id="Path" fill="#231F20"></path>
            <path d="M0,0 L0,60.18 C0,60.96 0,61.73 0,62.49 L0,63.06 C0,63.77 0.08,64.47 0.13,65.16 L0.13,65.27 C0.19,66.02 0.27,66.72 0.36,67.41 L0.46,68.15 C0.52,68.58 0.59,69.01 0.66,69.44 C4,89.26 17.92,102.52 38,104.9 L38,104.9 L38.86,105.01 L38.86,95.87 C38.3,90.65 36.14,88.87 33.38,87.15 C23.34,83.28 17.8,74.29 17.8,61.85 L17.8,11.31 C17.8,5.12 17,0 6.59,0 L0,0 Z" id="Path" fill="#231F20"></path>
            <path d="M82,0 C71.6,0 70.76,5.12 70.76,11.31 L70.76,61.85 C70.76,70.72 67.9,77.94 62.48,82.74 L59.95,84.74 C59.05,85.35 58.22,85.84 57.42,86.32 C53.2,88.85 50.42,90.52 50.42,98.8 L50.42,104.91 L50.52,104.91 C70.62,102.52 84.52,89.27 87.8,69.46 C87.87,69.03 87.94,68.6 88,68.16 C88,67.91 88.07,67.67 88.1,67.42 C88.19,66.73 88.27,66.03 88.33,65.32 L88.33,65.17 C88.39,64.48 88.43,63.77 88.46,63.06 L88.46,62.49 C88.46,61.73 88.46,60.97 88.46,60.19 L88.46,0 L82,0 Z" id="Path" fill="#231F20"></path>
        </g>
    </g>
</svg>